<?xml version="1.0" encoding="utf-8"?>
<!-- Generator: Adobe Illustrator 22.0.1, SVG Export Plug-In . SVG Version: 6.00 Build 0)  -->
<svg version="1.1" id="Layer_1" xmlns="http://www.w3.org/2000/svg" xmlns:xlink="http://www.w3.org/1999/xlink" x="0px" y="0px"
	 viewBox="0 0 512 512" style="enable-background:new 0 0 512 512;" xml:space="preserve">
<style type="text/css">
	.st0{fill:#EFEFEF;stroke:#EFEFEF;stroke-width:10;stroke-miterlimit:10;}
	.st1{fill:#999999;stroke:#999999;stroke-width:10;stroke-miterlimit:10;}
</style>
<g>
	<g>
		<path class="st0" d="M503.2,85.6c-3.7-3.3-9.8-3.3-13.6,0L256,291.6L22.4,85.6c-3.7-3.3-9.8-3.3-13.6,0s-3.7,8.7,0,12l240.4,212
			c1.8,1.6,4.2,2.5,6.8,2.5s5-0.9,6.8-2.5l240.4-212C506.9,94.2,506.9,88.9,503.2,85.6z"/>
	</g>
</g>
<g>
	<g>
		<path class="st1" d="M504.2,278.6c-3.7-3.3-9.8-3.3-13.6,0L257,484.6l-233.6-206c-3.7-3.3-9.8-3.3-13.6,0s-3.7,8.7,0,12l240.4,212
			c1.8,1.6,4.2,2.5,6.8,2.5s5-0.9,6.8-2.5l240.4-212C507.9,287.2,507.9,281.9,504.2,278.6z"/>
	</g>
</g>
</svg>
